<svg xmlns="http://www.w3.org/2000/svg" xmlns:xlink="http://www.w3.org/1999/xlink" width="124.069" height="41.92" viewBox="0 0 124.069 41.92">
  <defs>
    <clipPath id="clip-path">
      <path id="Path_189" data-name="Path 189" d="M277.648,238.882V280.8h5.993v-1.189h-4.8V240.071h4.8v-1.189Z" transform="translate(-277.648 -238.882)" fill="none"/>
    </clipPath>
    <clipPath id="clip-path-2">
      <path id="Path_190" data-name="Path 190" d="M378.365,238.882v1.189h4.8v39.542h-4.8V280.8h5.993v-41.92Z" transform="translate(-378.365 -238.882)" fill="none"/>
    </clipPath>
    <clipPath id="clip-path-3">
      <rect id="Rectangle_32" data-name="Rectangle 32" width="3.121" height="5.384" fill="none"/>
    </clipPath>
    <clipPath id="clip-path-4">
      <rect id="Rectangle_34" data-name="Rectangle 34" width="17.72" height="13.788" fill="none"/>
    </clipPath>
    <clipPath id="clip-path-5">
      <path id="Path_195" data-name="Path 195" d="M308.356,308.747l17.523-9.944-.012,3.586-17.513,9.95Z" transform="translate(-308.354 -298.803)" fill="none"/>
    </clipPath>
    <clipPath id="clip-path-6">
      <rect id="Rectangle_36" data-name="Rectangle 36" width="17.72" height="13.789" fill="none"/>
    </clipPath>
    <clipPath id="clip-path-7">
      <path id="Path_199" data-name="Path 199" d="M308.283,286.7l17.523-9.945-.012,3.586-17.513,9.95Z" transform="translate(-308.281 -276.753)" fill="none"/>
    </clipPath>
    <clipPath id="clip-path-8">
      <path id="Path_203" data-name="Path 203" d="M324.933,276.857l-.136,21.1,3.091-1.751L328,275.1Z" transform="translate(-324.797 -275.099)" fill="none"/>
    </clipPath>
  </defs>
  <g id="i11_labs_logo" data-name="i11 labs logo" transform="translate(-277.648 -238.881)">
    <path id="Path_181" data-name="Path 181" d="M428.24,283.62h2.27v2.417h-2.27Zm0,3.636h2.27V297.7h-2.27Z" transform="translate(-95.839 -30.545)" fill="#f71735"/>
    <path id="Path_182" data-name="Path 182" d="M438.615,297.7V286.983h-3.447v-1.618h.672c1.555,0,2.438-.4,3.047-1.744h2V297.7Z" transform="translate(-99.236 -30.545)" fill="#010002"/>
    <path id="Path_183" data-name="Path 183" d="M452.306,297.7V286.983h-3.447v-1.618h.673c1.555,0,2.438-.4,3.047-1.744h2V297.7Z" transform="translate(-105.949 -30.545)" fill="#010002"/>
    <path id="Path_184" data-name="Path 184" d="M471.249,297.7v-14.08h2.271v12.042H482.2V297.7Z" transform="translate(-116.928 -30.545)" fill="#010002"/>
    <path id="Path_185" data-name="Path 185" d="M494.715,298.474c0-1.618,1.3-2.458,3.363-2.69l4.75-.5v-.609c0-1.724-.756-2.333-2.753-2.333-1.934,0-2.88.63-2.88,2.165v.085h-2.249V294.5c0-2.375,1.975-4.161,5.3-4.161s4.813,1.807,4.813,4.308V301h-2.081V298.39h-.147c-.546,1.765-2.207,2.816-4.582,2.816-2.164,0-3.531-1.009-3.531-2.732m4.141,1.093c2.374,0,3.972-.883,3.972-2.942l-4.1.462c-1.177.147-1.744.421-1.744,1.24,0,.84.567,1.24,1.87,1.24" transform="translate(-128.434 -33.84)" fill="#010002"/>
    <path id="Path_186" data-name="Path 186" d="M518.964,297.7V283.62h2.269v6.473h.126c.42-1.766,1.807-3.047,4.308-3.047,3.216,0,4.981,2.185,4.981,5.442,0,3.216-1.787,5.422-5.108,5.422-2.374,0-3.909-1.135-4.35-3.216h-.147V297.7Zm5.863-1.87c2.29,0,3.551-.841,3.551-3.342,0-2.521-1.282-3.383-3.51-3.383-2.354,0-3.635,1.093-3.635,3.321v.168c0,2.186,1.346,3.237,3.594,3.237" transform="translate(-140.323 -30.545)" fill="#010002"/>
    <path id="Path_187" data-name="Path 187" d="M544.223,297.466V297.4h2.27v.168c0,1.366.82,1.807,3.005,1.807,2.039,0,2.648-.42,2.648-1.345,0-.861-.5-1.135-2-1.345l-2.859-.378c-1.975-.252-3.174-1.093-3.174-2.837,0-1.829,1.66-3.131,4.876-3.131,3.194,0,5.128,1.282,5.128,3.761v.063h-2.249v-.126c0-1.24-.631-1.891-2.942-1.891-1.913,0-2.585.421-2.585,1.408,0,.82.419,1.114,2,1.324l2.416.336c2.48.315,3.615,1.155,3.615,2.879,0,1.955-1.934,3.11-4.876,3.11-3.363,0-5.275-1.324-5.275-3.74" transform="translate(-152.657 -33.841)" fill="#010002"/>
    <path id="Path_188" data-name="Path 188" d="M277.649,238.881V280.8h5.993v-1.189h-4.8V240.07h4.8v-1.189Z" transform="translate(0)" fill="#010002"/>
    <g id="Group_211" data-name="Group 211" transform="translate(277.648 238.882)">
      <g id="Group_210" data-name="Group 210" transform="translate(0 0)" clip-path="url(#clip-path)">
        <rect id="Rectangle_30" data-name="Rectangle 30" width="23.933" height="40.241" transform="translate(-16.641 8.216) rotate(-26.278)" fill="#010002"/>
      </g>
    </g>
    <g id="Group_213" data-name="Group 213" transform="translate(313.575 238.882)">
      <g id="Group_212" data-name="Group 212" transform="translate(0 0)" clip-path="url(#clip-path-2)">
        <rect id="Rectangle_31" data-name="Rectangle 31" width="23.933" height="40.241" transform="translate(-16.641 8.216) rotate(-26.278)" fill="#010002"/>
      </g>
    </g>
    <path id="Path_191" data-name="Path 191" d="M324.841,256.369l3.038-1.763.012-3.586-3.062,1.775Z" transform="translate(-30.351 -7.809)" fill="#f71735"/>
    <path id="Path_192" data-name="Path 192" d="M324.862,262.835l3,1.763,3.145-1.763-3.109-1.763Z" transform="translate(-30.372 -14.275)" fill="#b71c32"/>
    <g id="Group_216" data-name="Group 216" transform="translate(297.528 243.176)" opacity="0.7">
      <g id="Group_215" data-name="Group 215" transform="translate(0 0)">
        <g id="Group_214" data-name="Group 214" clip-path="url(#clip-path-3)">
          <path id="Path_193" data-name="Path 193" d="M333.379,254.542l.024-3.621,3.1,1.8-.012,3.586" transform="translate(-333.379 -250.921)" fill="#dc3344"/>
        </g>
      </g>
    </g>
    <g id="Group_221" data-name="Group 221" transform="translate(288.503 260.13)" opacity="0.92">
      <g id="Group_220" data-name="Group 220" transform="translate(0 0)">
        <g id="Group_219" data-name="Group 219" clip-path="url(#clip-path-4)">
          <path id="Path_194" data-name="Path 194" d="M308.356,308.747l17.522-9.944-.012,3.585-17.513,9.95Z" transform="translate(-308.256 -298.677)" fill="#201f21"/>
          <g id="Group_218" data-name="Group 218" transform="translate(0.098 0.127)">
            <g id="Group_217" data-name="Group 217" clip-path="url(#clip-path-5)">
              <rect id="Rectangle_33" data-name="Rectangle 33" width="17.623" height="13.662" transform="matrix(1, -0.007, 0.007, 1, -0.098, 0.001)" fill="#201f21"/>
            </g>
          </g>
        </g>
      </g>
    </g>
    <path id="Path_196" data-name="Path 196" d="M308.362,318.8l3.108,1.731,17.511-9.914-3.109-1.763Z" transform="translate(-19.758 -45.013)" fill="#010002"/>
    <path id="Path_197" data-name="Path 197" d="M357.45,302.324l.024-3.621,3.1,1.8-.012,3.585" transform="translate(-51.336 -38.482)" fill="#33363d"/>
    <g id="Group_226" data-name="Group 226" transform="translate(288.478 252.265)" opacity="0.92">
      <g id="Group_225" data-name="Group 225" transform="translate(0 0)">
        <g id="Group_224" data-name="Group 224" clip-path="url(#clip-path-6)">
          <path id="Path_198" data-name="Path 198" d="M308.283,286.7l17.523-9.944-.012,3.585-17.513,9.95Z" transform="translate(-308.184 -276.627)" fill="#201f21"/>
          <g id="Group_223" data-name="Group 223" transform="translate(0.097 0.126)">
            <g id="Group_222" data-name="Group 222" clip-path="url(#clip-path-7)">
              <rect id="Rectangle_35" data-name="Rectangle 35" width="17.622" height="13.662" transform="matrix(1, -0.007, 0.007, 1, -0.097, 0.001)" fill="#201f21"/>
            </g>
          </g>
        </g>
      </g>
    </g>
    <path id="Path_200" data-name="Path 200" d="M308.288,296.752l3.108,1.731,17.511-9.914-3.109-1.763Z" transform="translate(-19.71 -30.829)" fill="#010002"/>
    <path id="Path_201" data-name="Path 201" d="M357.377,280.275l.024-3.621,3.1,1.8-.012,3.586" transform="translate(-51.289 -24.298)" fill="#33363d"/>
    <path id="Path_202" data-name="Path 202" d="M324.933,276.857,328,275.1l-.114,21.109-3.091,1.751Z" transform="translate(-30.331 -23.298)" fill="#f71735"/>
    <g id="Group_228" data-name="Group 228" transform="translate(294.466 251.801)">
      <g id="Group_227" data-name="Group 227" transform="translate(0.001 0)" clip-path="url(#clip-path-8)">
        <rect id="Rectangle_37" data-name="Rectangle 37" width="3.261" height="22.867" transform="translate(-0.056 0) rotate(-0.14)" fill="#f71735"/>
      </g>
    </g>
    <path id="Path_204" data-name="Path 204" d="M324.8,336.024l3.073,1.847,3.074-1.829-3.056-1.769Z" transform="translate(-30.329 -61.364)" fill="#b71c32"/>
    <path id="Path_205" data-name="Path 205" d="M333.463,296.208l3.055,1.769.167-21.067-3.108-1.81Z" transform="translate(-35.905 -23.298)" fill="#e7717d"/>
  </g>
</svg>
